<svg class="css-ze2te4 css-qd6ojx" viewBox="0 0 100 91.28172561820902">
  <g transform="translate(-0.0021454399128820268, -4.355722224642335) scale(1.9999171482077425)" class="css-1e98oqk" fill="#ffffff">
    <g xmlns="http://www.w3.org/2000/svg">
      <path fill-rule="evenodd" clip-rule="evenodd" d="M40.323,19.751c-1.125,0-2.037-0.912-2.037-2.037   c0-1.125,0.912-2.037,2.037-2.037c1.125,0,2.037,0.912,2.037,2.037C42.36,18.839,41.448,19.751,40.323,19.751 M2.016,25.019   L0.04,32.563c-0.212,0.806,0.448,1.532,1.253,1.297c2.384-0.695,4.393-1.82,6.076-3.318c0.498,0.736,1.019,1.446,1.56,2.131   l-1.376,3.915C7.35,37.164,7.868,37.731,8.46,37.58l4.048-1.028c1.089,1.01,2.227,1.929,3.402,2.751l-0.139,4.108   c-0.02,0.611,0.643,0.997,1.164,0.676l3.517-2.171c1.485,0.681,3.031,1.227,4.62,1.61l1.489,3.808   c0.222,0.57,0.984,0.66,1.336,0.16l2.339-3.339c1.952-0.001,3.879-0.281,5.739-0.861l3.217,2.422   c0.488,0.368,1.184,0.045,1.221-0.565l0.238-4.073c1.569-1.032,3.042-2.353,4.325-3.721l3.901,0.462   c0.607,0.07,1.047-0.558,0.77-1.103l-1.675-3.305c0.967-1.628,1.642-3.298,2.029-4.985l-6.935-3.399l6.934-3.399   c-0.389-1.697-1.07-3.374-2.044-5.01l1.691-3.336c0.277-0.545-0.163-1.174-0.77-1.103l-3.947,0.468   c-1.21-1.448-2.954-3.134-4.533-4.09l0.017-3.71c-0.037-0.61-0.733-0.934-1.221-0.565l-3.269,2.46   c-1.831-0.565-3.727-0.839-5.648-0.844l-2.377-3.394c-0.35-0.5-1.115-0.408-1.336,0.16l-1.514,3.869   c-1.563,0.38-3.081,0.914-4.544,1.581l-3.569-2.203c-0.521-0.321-1.184,0.064-1.164,0.676l0.141,4.163   c-1.159,0.811-2.281,1.715-3.357,2.708L8.46,12.42c-0.592-0.151-1.11,0.417-0.908,0.993l1.389,3.953   c-0.542,0.686-1.065,1.399-1.565,2.137c-1.684-1.501-3.697-2.628-6.084-3.325c-0.805-0.236-1.465,0.489-1.253,1.296L2.016,25.019z">
      </path>
    </g>
  </g>
</svg>