<svg class="css-ze2te4 css-qd6ojx" viewBox="0 0 88.88333741421872 80.35988518271259"><g transform="translate(-0.0005446233067279036, -4.261999910816211) scale(1.777677598367372)" class="css-1mun45u" fill="#111111"><g xmlns="http://www.w3.org/2000/svg"><path fill-rule="evenodd" clip-rule="evenodd" d="M29.933,9.023c7.5,0,15.144,6.07,16.745,13.42l-5.272,2.585l5.271,2.584   c-1.603,7.351-9.245,13.42-16.746,13.42c-8.347,0-16.899-5.757-21.807-14.701c-1.329,1.06-2.876,2.431-4.319,3.329   c0.422-1.612,0.783-3.068,1.072-4.69c-0.285-1.644-0.602-3.196-1.072-4.652c1.45,0.902,2.941,2.4,4.254,3.525   C12.956,14.832,21.549,9.023,29.933,9.023 M38.44,15.766c-1.114,0-2.017,0.903-2.017,2.017c0,1.114,0.903,2.017,2.017,2.017   c1.114,0,2.017-0.903,2.017-2.017C40.458,16.67,39.555,15.766,38.44,15.766z M35.671,6.848c-1.869-0.586-3.8-0.866-5.758-0.866   l-2.285-3.261c-0.163-0.234-0.425-0.351-0.708-0.318c-0.283,0.034-0.51,0.21-0.616,0.475l-1.448,3.704   c-1.588,0.372-3.157,0.914-4.688,1.61l-3.396-2.097c-0.245-0.151-0.53-0.155-0.778-0.011c-0.248,0.143-0.386,0.393-0.376,0.679   l0.134,3.941c-1.216,0.84-2.39,1.782-3.507,2.818L8.377,12.54C8.1,12.471,7.826,12.55,7.633,12.762   c-0.194,0.21-0.25,0.491-0.156,0.761l1.312,3.731c-0.54,0.679-1.06,1.384-1.555,2.114c-1.418-1.418-3.985-2.673-5.896-3.232   c-0.8-0.232-1.509,0.483-1.301,1.284l1.834,7.598l-1.834,7.598c-0.205,0.788,0.489,1.561,1.242,1.342   c1.905-0.557,4.534-1.87,5.948-3.284c0.494,0.728,1.011,1.431,1.549,2.109l-1.297,3.694c-0.095,0.27-0.038,0.55,0.155,0.76   c0.191,0.213,0.467,0.294,0.745,0.223l3.822-0.971c1.131,1.052,2.319,2.007,3.551,2.859l-0.132,3.888   c-0.01,0.286,0.128,0.536,0.376,0.679c0.248,0.145,0.534,0.141,0.778-0.011l3.346-2.065c1.554,0.711,3.148,1.261,4.761,1.637   l1.424,3.646c0.106,0.264,0.33,0.439,0.616,0.475c0.283,0.033,0.545-0.084,0.708-0.317l2.305-3.208   c2.005,0,3.947-0.298,5.789-0.882l3.095,2.328c0.227,0.173,0.511,0.204,0.772,0.084c0.258-0.122,0.42-0.357,0.437-0.643   l0.229-3.913c1.607-1.044,3.112-2.392,4.415-3.792l3.739,0.444c0.284,0.034,0.545-0.084,0.708-0.319   c0.164-0.234,0.186-0.519,0.055-0.774l-1.606-3.168C49.172,30.749,50,27.914,50,25.026c0-2.896-0.834-5.739-2.449-8.435   l1.621-3.197c0.13-0.254,0.109-0.54-0.055-0.773c-0.164-0.235-0.424-0.353-0.708-0.319l-3.785,0.447   c-1.292-1.38-2.778-2.709-4.366-3.74L40.025,5.04c-0.017-0.286-0.179-0.521-0.437-0.643c-0.259-0.121-0.545-0.088-0.772,0.082   L35.671,6.848z"></path></g></g></svg>